<mxfile host="app.diagrams.net" modified="2022-02-20T10:06:03.406Z" agent="5.0 (X11; Linux x86_64) AppleWebKit/537.36 (KHTML, like Gecko) Chrome/97.0.4692.71 Safari/537.36" etag="cihXBorAysUBSPVC7035" version="16.6.1" type="github" pages="2">
  <diagram id="2q22Gi5Y8NkYDUztNNEs" name="Page-1">
    <mxGraphModel dx="2942" dy="1121" grid="1" gridSize="10" guides="1" tooltips="1" connect="1" arrows="1" fold="1" page="1" pageScale="1" pageWidth="850" pageHeight="1100" math="0" shadow="0">
      <root>
        <mxCell id="0" />
        <mxCell id="1" parent="0" />
        <mxCell id="fmlx-8IupuikfdDVOVEZ-6" value="" style="rounded=0;whiteSpace=wrap;html=1;container=1;" parent="1" vertex="1">
          <mxGeometry x="240" y="200" width="120" height="570" as="geometry" />
        </mxCell>
        <mxCell id="fmlx-8IupuikfdDVOVEZ-7" value="" style="rounded=0;whiteSpace=wrap;html=1;" parent="1" vertex="1">
          <mxGeometry x="360" y="200" width="120" height="570" as="geometry" />
        </mxCell>
        <mxCell id="fmlx-8IupuikfdDVOVEZ-8" value="User" style="text;html=1;strokeColor=none;fillColor=none;align=center;verticalAlign=middle;whiteSpace=wrap;rounded=0;" parent="1" vertex="1">
          <mxGeometry x="270" y="200" width="60" height="30" as="geometry" />
        </mxCell>
        <mxCell id="fmlx-8IupuikfdDVOVEZ-9" value="Server" style="text;html=1;strokeColor=none;fillColor=none;align=center;verticalAlign=middle;whiteSpace=wrap;rounded=0;" parent="1" vertex="1">
          <mxGeometry x="390" y="200" width="60" height="30" as="geometry" />
        </mxCell>
        <mxCell id="fmlx-8IupuikfdDVOVEZ-10" value="" style="endArrow=none;html=1;rounded=0;exitX=0;exitY=0.07;exitDx=0;exitDy=0;exitPerimeter=0;" parent="1" source="fmlx-8IupuikfdDVOVEZ-6" edge="1">
          <mxGeometry width="50" height="50" relative="1" as="geometry">
            <mxPoint x="430" y="290" as="sourcePoint" />
            <mxPoint x="480" y="240" as="targetPoint" />
          </mxGeometry>
        </mxCell>
        <mxCell id="fmlx-8IupuikfdDVOVEZ-11" value="" style="ellipse;whiteSpace=wrap;html=1;aspect=fixed;fillColor=#050505;" parent="1" vertex="1">
          <mxGeometry x="295" y="260" width="10" height="10" as="geometry" />
        </mxCell>
        <mxCell id="fmlx-8IupuikfdDVOVEZ-12" value="" style="endArrow=classic;html=1;rounded=0;" parent="1" edge="1">
          <mxGeometry width="50" height="50" relative="1" as="geometry">
            <mxPoint x="300" y="270" as="sourcePoint" />
            <mxPoint x="300" y="307" as="targetPoint" />
          </mxGeometry>
        </mxCell>
        <mxCell id="2Y6hpZkP2P5Hko0TBlMG-1" value="" style="rhombus;whiteSpace=wrap;html=1;fillColor=#FFFFFF;" parent="1" vertex="1">
          <mxGeometry x="275" y="307" width="50" height="30" as="geometry" />
        </mxCell>
        <mxCell id="2Y6hpZkP2P5Hko0TBlMG-2" value="&lt;font style=&quot;font-size: 6px&quot;&gt;hasAccount&lt;/font&gt;" style="text;html=1;strokeColor=none;fillColor=none;align=center;verticalAlign=middle;whiteSpace=wrap;rounded=0;" parent="1" vertex="1">
          <mxGeometry x="288" y="316" width="25" height="7" as="geometry" />
        </mxCell>
        <mxCell id="2Y6hpZkP2P5Hko0TBlMG-3" value="" style="endArrow=classic;html=1;rounded=0;fontSize=6;exitX=1;exitY=0.5;exitDx=0;exitDy=0;" parent="1" source="2Y6hpZkP2P5Hko0TBlMG-1" edge="1">
          <mxGeometry width="50" height="50" relative="1" as="geometry">
            <mxPoint x="340" y="330" as="sourcePoint" />
            <mxPoint x="389" y="322" as="targetPoint" />
          </mxGeometry>
        </mxCell>
      </root>
    </mxGraphModel>
  </diagram>
  <diagram id="_EtnDVVLF7YGiw1kqTqZ" name="Page-2">
    <mxGraphModel dx="2942" dy="1121" grid="1" gridSize="10" guides="1" tooltips="1" connect="1" arrows="1" fold="1" page="1" pageScale="1" pageWidth="850" pageHeight="1100" math="0" shadow="0">
      <root>
        <mxCell id="uKgiQ2Hd49TKrP9LsJYM-0" />
        <mxCell id="uKgiQ2Hd49TKrP9LsJYM-1" parent="uKgiQ2Hd49TKrP9LsJYM-0" />
      </root>
    </mxGraphModel>
  </diagram>
</mxfile>
